VERSION .7
FIELDS x y z
SIZE 4 4 4
TYPE F F F
COUNT 1 1 1
WIDTH 1170
HEIGHT 1
VIEWPOINT 0 0 0 1 0 0 0
POINTS 1170
DATA ascii
-0.375 -0.2975 0.0
-0.375 -0.295 0.0
-0.375 -0.2925 0.0
-0.37296296296296294 -0.2975 0.0
-0.37296296296296294 -0.295 0.0
-0.37296296296296294 -0.2925 0.0
-0.37092592592592594 -0.2975 0.0
-0.37092592592592594 -0.295 0.0
-0.37092592592592594 -0.2925 0.0
-0.3688888888888889 -0.2975 0.0
-0.3688888888888889 -0.295 0.0
-0.3688888888888889 -0.2925 0.0
-0.3668518518518519 -0.2975 0.0
-0.3668518518518519 -0.295 0.0
-0.3668518518518519 -0.2925 0.0
-0.3648148148148148 -0.2975 0.0
-0.3648148148148148 -0.295 0.0
-0.3648148148148148 -0.2925 0.0
-0.36277777777777775 -0.2975 0.0
-0.36277777777777775 -0.295 0.0
-0.36277777777777775 -0.2925 0.0
-0.36074074074074075 -0.2975 0.0
-0.36074074074074075 -0.295 0.0
-0.36074074074074075 -0.2925 0.0
-0.3587037037037037 -0.2975 0.0
-0.3587037037037037 -0.295 0.0
-0.3587037037037037 -0.2925 0.0
-0.3566666666666667 -0.2975 0.0
-0.3566666666666667 -0.295 0.0
-0.3566666666666667 -0.2925 0.0
-0.35462962962962963 -0.2975 0.0
-0.35462962962962963 -0.295 0.0
-0.35462962962962963 -0.2925 0.0
-0.35259259259259257 -0.2975 0.0
-0.35259259259259257 -0.295 0.0
-0.35259259259259257 -0.2925 0.0
-0.35055555555555556 -0.2975 0.0
-0.35055555555555556 -0.295 0.0
-0.35055555555555556 -0.2925 0.0
-0.3485185185185185 -0.2975 0.0
-0.3485185185185185 -0.295 0.0
-0.3485185185185185 -0.2925 0.0
-0.3464814814814815 -0.2975 0.0
-0.3464814814814815 -0.295 0.0
-0.3464814814814815 -0.2925 0.0
-0.34444444444444444 -0.2975 0.0
-0.34444444444444444 -0.295 0.0
-0.34444444444444444 -0.2925 0.0
-0.3424074074074074 -0.2975 0.0
-0.3424074074074074 -0.295 0.0
-0.3424074074074074 -0.2925 0.0
-0.3403703703703704 -0.2975 0.0
-0.3403703703703704 -0.295 0.0
-0.3403703703703704 -0.2925 0.0
-0.3383333333333333 -0.2975 0.0
-0.3383333333333333 -0.295 0.0
-0.3383333333333333 -0.2925 0.0
-0.3362962962962963 -0.2975 0.0
-0.3362962962962963 -0.295 0.0
-0.3362962962962963 -0.2925 0.0
-0.33425925925925926 -0.2975 0.0
-0.33425925925925926 -0.295 0.0
-0.33425925925925926 -0.2925 0.0
-0.3322222222222222 -0.2975 0.0
-0.3322222222222222 -0.295 0.0
-0.3322222222222222 -0.2925 0.0
-0.3301851851851852 -0.2975 0.0
-0.3301851851851852 -0.295 0.0
-0.3301851851851852 -0.2925 0.0
-0.32814814814814813 -0.2975 0.0
-0.32814814814814813 -0.295 0.0
-0.32814814814814813 -0.2925 0.0
-0.32611111111111113 -0.2975 0.0
-0.32611111111111113 -0.295 0.0
-0.32611111111111113 -0.2925 0.0
-0.32407407407407407 -0.2975 0.0
-0.32407407407407407 -0.295 0.0
-0.32407407407407407 -0.2925 0.0
-0.322037037037037 -0.2975 0.0
-0.322037037037037 -0.295 0.0
-0.322037037037037 -0.2925 0.0
-0.32 -0.2975 0.0
-0.32 -0.295 0.0
-0.32 -0.2925 0.0
-0.31796296296296295 -0.2975 0.0
-0.31796296296296295 -0.295 0.0
-0.31796296296296295 -0.2925 0.0
-0.31592592592592594 -0.2975 0.0
-0.31592592592592594 -0.295 0.0
-0.31592592592592594 -0.2925 0.0
-0.3138888888888889 -0.2975 0.0
-0.3138888888888889 -0.295 0.0
-0.3138888888888889 -0.2925 0.0
-0.3118518518518519 -0.2975 0.0
-0.3118518518518519 -0.295 0.0
-0.3118518518518519 -0.2925 0.0
-0.3098148148148148 -0.2975 0.0
-0.3098148148148148 -0.295 0.0
-0.3098148148148148 -0.2925 0.0
-0.30777777777777776 -0.2975 0.0
-0.30777777777777776 -0.295 0.0
-0.30777777777777776 -0.2925 0.0
-0.30574074074074076 -0.2975 0.0
-0.30574074074074076 -0.295 0.0
-0.30574074074074076 -0.2925 0.0
-0.3037037037037037 -0.2975 0.0
-0.3037037037037037 -0.295 0.0
-0.3037037037037037 -0.2925 0.0
-0.3016666666666667 -0.2975 0.0
-0.3016666666666667 -0.295 0.0
-0.3016666666666667 -0.2925 0.0
-0.29962962962962963 -0.2975 0.0
-0.29962962962962963 -0.295 0.0
-0.29962962962962963 -0.2925 0.0
-0.29759259259259263 -0.2975 0.0
-0.29759259259259263 -0.295 0.0
-0.29759259259259263 -0.2925 0.0
-0.29555555555555557 -0.2975 0.0
-0.29555555555555557 -0.295 0.0
-0.29555555555555557 -0.2925 0.0
-0.2935185185185185 -0.2975 0.0
-0.2935185185185185 -0.295 0.0
-0.2935185185185185 -0.2925 0.0
-0.2914814814814815 -0.2975 0.0
-0.2914814814814815 -0.295 0.0
-0.2914814814814815 -0.2925 0.0
-0.28944444444444445 -0.2975 0.0
-0.28944444444444445 -0.295 0.0
-0.28944444444444445 -0.2925 0.0
-0.28740740740740744 -0.2975 0.0
-0.28740740740740744 -0.295 0.0
-0.28740740740740744 -0.2925 0.0
-0.2853703703703704 -0.2975 0.0
-0.2853703703703704 -0.295 0.0
-0.2853703703703704 -0.2925 0.0
-0.2833333333333333 -0.2975 0.0
-0.2833333333333333 -0.295 0.0
-0.2833333333333333 -0.2925 0.0
-0.2812962962962963 -0.2975 0.0
-0.2812962962962963 -0.295 0.0
-0.2812962962962963 -0.2925 0.0
-0.27925925925925926 -0.2975 0.0
-0.27925925925925926 -0.295 0.0
-0.27925925925925926 -0.2925 0.0
-0.27722222222222226 -0.2975 0.0
-0.27722222222222226 -0.295 0.0
-0.27722222222222226 -0.2925 0.0
-0.2751851851851852 -0.2975 0.0
-0.2751851851851852 -0.295 0.0
-0.2751851851851852 -0.2925 0.0
-0.27314814814814814 -0.2975 0.0
-0.27314814814814814 -0.295 0.0
-0.27314814814814814 -0.2925 0.0
-0.27111111111111114 -0.2975 0.0
-0.27111111111111114 -0.295 0.0
-0.27111111111111114 -0.2925 0.0
-0.2690740740740741 -0.2975 0.0
-0.2690740740740741 -0.295 0.0
-0.2690740740740741 -0.2925 0.0
-0.2675 -0.295 0.0
-0.2675 -0.29299319727891154 0.0
-0.2675 -0.2909863945578231 0.0
-0.2675 -0.28897959183673466 0.0
-0.2675 -0.2869727891156462 0.0
-0.2675 -0.2849659863945578 0.0
-0.2675 -0.28295918367346934 0.0
-0.2675 -0.2809523809523809 0.0
-0.2675 -0.27894557823129246 0.0
-0.2675 -0.27693877551020407 0.0
-0.2675 -0.27493197278911563 0.0
-0.2675 -0.2729251700680272 0.0
-0.2675 -0.27091836734693875 0.0
-0.2675 -0.2689115646258503 0.0
-0.2675 -0.26690476190476187 0.0
-0.2675 -0.2648979591836735 0.0
-0.2675 -0.26289115646258504 0.0
-0.2675 -0.2608843537414966 0.0
-0.2675 -0.25887755102040816 0.0
-0.2675 -0.2568707482993197 0.0
-0.2675 -0.2548639455782313 0.0
-0.2675 -0.25285714285714284 0.0
-0.2675 -0.2508503401360544 0.0
-0.2675 -0.24884353741496595 0.0
-0.2675 -0.2468367346938775 0.0
-0.2675 -0.24482993197278907 0.0
-0.2675 -0.24282312925170063 0.0
-0.2675 -0.24081632653061225 0.0
-0.2675 -0.2388095238095238 0.0
-0.2675 -0.23680272108843536 0.0
-0.2675 -0.23479591836734692 0.0
-0.2675 -0.23278911564625848 0.0
-0.2675 -0.23078231292517004 0.0
-0.2675 -0.2287755102040816 0.0
-0.2675 -0.2267687074829932 0.0
-0.2675 -0.22476190476190475 0.0
-0.2675 -0.2227551020408163 0.0
-0.2675 -0.22074829931972786 0.0
-0.2675 -0.21874149659863942 0.0
-0.2675 -0.21673469387755098 0.0
-0.2675 -0.21472789115646254 0.0
-0.2675 -0.21272108843537416 0.0
-0.2675 -0.21071428571428572 0.0
-0.2675 -0.20870748299319727 0.0
-0.2675 -0.20670068027210883 0.0
-0.2675 -0.2046938775510204 0.0
-0.2675 -0.20268707482993195 0.0
-0.2675 -0.2006802721088435 0.0
-0.2675 -0.19867346938775507 0.0
-0.2675 -0.19666666666666666 0.0
-0.2675 -0.19465986394557822 0.0
-0.2675 -0.19265306122448977 0.0
-0.2675 -0.19064625850340133 0.0
-0.2675 -0.1886394557823129 0.0
-0.2675 -0.18663265306122445 0.0
-0.2675 -0.18462585034013607 0.0
-0.2675 -0.18261904761904763 0.0
-0.2675 -0.18061224489795918 0.0
-0.2675 -0.17860544217687074 0.0
-0.2675 -0.1765986394557823 0.0
-0.2675 -0.17459183673469386 0.0
-0.2675 -0.17258503401360542 0.0
-0.2675 -0.17057823129251698 0.0
-0.2675 -0.16857142857142857 0.0
-0.2675 -0.16656462585034013 0.0
-0.2675 -0.16455782312925168 0.0
-0.2675 -0.16255102040816324 0.0
-0.2675 -0.1605442176870748 0.0
-0.2675 -0.15853741496598636 0.0
-0.2675 -0.15653061224489795 0.0
-0.2675 -0.15452380952380954 0.0
-0.2675 -0.1525170068027211 0.0
-0.2675 -0.15051020408163265 0.0
-0.2675 -0.1485034013605442 0.0
-0.2675 -0.14649659863945577 0.0
-0.2675 -0.14448979591836733 0.0
-0.2675 -0.1424829931972789 0.0
-0.2675 -0.14047619047619045 0.0
-0.2675 -0.13846938775510204 0.0
-0.2675 -0.1364625850340136 0.0
-0.2675 -0.13445578231292515 0.0
-0.2675 -0.13244897959183674 0.0
-0.2675 -0.1304421768707483 0.0
-0.2675 -0.12843537414965986 0.0
-0.2675 -0.12642857142857142 0.0
-0.2675 -0.12442176870748298 0.0
-0.2675 -0.12241496598639454 0.0
-0.2675 -0.12040816326530612 0.0
-0.2675 -0.11840136054421768 0.0
-0.2675 -0.11639455782312924 0.0
-0.2675 -0.1143877551020408 0.0
-0.2675 -0.11238095238095237 0.0
-0.2675 -0.11037414965986393 0.0
-0.2675 -0.10836734693877549 0.0
-0.2675 -0.10636054421768708 0.0
-0.2675 -0.10435374149659864 0.0
-0.2675 -0.1023469387755102 0.0
-0.2675 -0.10034013605442176 0.0
-0.2675 -0.09833333333333333 0.0
-0.2675 -0.09632653061224489 0.0
-0.2675 -0.09431972789115645 0.0
-0.2675 -0.09231292517006803 0.0
-0.2675 -0.09030612244897959 0.0
-0.2675 -0.08829931972789115 0.0
-0.2675 -0.08629251700680271 0.0
-0.2675 -0.08428571428571428 0.0
-0.2675 -0.08227891156462584 0.0
-0.2675 -0.0802721088435374 0.0
-0.2675 -0.07826530612244897 0.0
-0.2675 -0.07625850340136055 0.0
-0.2675 -0.0742517006802721 0.0
-0.2675 -0.07224489795918367 0.0
-0.2675 -0.07023809523809522 0.0
-0.2675 -0.0682312925170068 0.0
-0.2675 -0.06622448979591837 0.0
-0.2675 -0.06421768707482993 0.0
-0.2675 -0.06221088435374149 0.0
-0.2675 -0.06020408163265306 0.0
-0.2675 -0.05819727891156462 0.0
-0.2675 -0.056190476190476187 0.0
-0.2675 -0.054183673469387746 0.0
-0.2675 -0.05217687074829932 0.0
-0.2675 -0.05017006802721088 0.0
-0.2675 -0.048163265306122444 0.0
-0.2675 -0.04615646258503402 0.0
-0.2675 -0.044149659863945576 0.0
-0.2675 -0.04214285714285714 0.0
-0.2675 -0.0401360544217687 0.0
-0.2675 -0.038129251700680274 0.0
-0.2675 -0.03612244897959183 0.0
-0.2675 -0.0341156462585034 0.0
-0.2675 -0.032108843537414965 0.0
-0.2675 -0.03010204081632653 0.0
-0.2675 -0.028095238095238093 0.0
-0.2675 -0.02608843537414966 0.0
-0.2675 -0.024081632653061222 0.0
-0.2675 -0.022074829931972788 0.0
-0.2675 -0.02006802721088435 0.0
-0.2675 -0.018061224489795916 0.0
-0.2675 -0.016054421768707482 0.0
-0.2675 -0.014047619047619047 0.0
-0.2675 -0.012040816326530611 0.0
-0.2675 -0.010034013605442175 0.0
-0.2675 -0.008027210884353741 0.0
-0.2675 -0.0060204081632653055 0.0
-0.2675 -0.004013605442176871 0.0
-0.2675 -0.0020068027210884353 0.0
-0.2675 0.0 0.0
-0.2670370370370371 -0.2975 0.0
-0.2670370370370371 -0.295 0.0
-0.2670370370370371 -0.2925 0.0
-0.265 -0.2975 0.0
-0.265 -0.295 0.0
-0.265 -0.29299319727891154 0.0
-0.265 -0.2925 0.0
-0.265 -0.2909863945578231 0.0
-0.265 -0.28897959183673466 0.0
-0.265 -0.2869727891156462 0.0
-0.265 -0.2849659863945578 0.0
-0.265 -0.28295918367346934 0.0
-0.265 -0.2809523809523809 0.0
-0.265 -0.27894557823129246 0.0
-0.265 -0.27693877551020407 0.0
-0.265 -0.27493197278911563 0.0
-0.265 -0.2729251700680272 0.0
-0.265 -0.27091836734693875 0.0
-0.265 -0.2689115646258503 0.0
-0.265 -0.26690476190476187 0.0
-0.265 -0.2648979591836735 0.0
-0.265 -0.26289115646258504 0.0
-0.265 -0.2608843537414966 0.0
-0.265 -0.25887755102040816 0.0
-0.265 -0.2568707482993197 0.0
-0.265 -0.2548639455782313 0.0
-0.265 -0.25285714285714284 0.0
-0.265 -0.2508503401360544 0.0
-0.265 -0.24884353741496595 0.0
-0.265 -0.2468367346938775 0.0
-0.265 -0.24482993197278907 0.0
-0.265 -0.24282312925170063 0.0
-0.265 -0.24081632653061225 0.0
-0.265 -0.2388095238095238 0.0
-0.265 -0.23680272108843536 0.0
-0.265 -0.23479591836734692 0.0
-0.265 -0.23278911564625848 0.0
-0.265 -0.23078231292517004 0.0
-0.265 -0.2287755102040816 0.0
-0.265 -0.2267687074829932 0.0
-0.265 -0.22476190476190475 0.0
-0.265 -0.2227551020408163 0.0
-0.265 -0.22074829931972786 0.0
-0.265 -0.21874149659863942 0.0
-0.265 -0.21673469387755098 0.0
-0.265 -0.21472789115646254 0.0
-0.265 -0.21272108843537416 0.0
-0.265 -0.21071428571428572 0.0
-0.265 -0.20870748299319727 0.0
-0.265 -0.20670068027210883 0.0
-0.265 -0.2046938775510204 0.0
-0.265 -0.20268707482993195 0.0
-0.265 -0.2006802721088435 0.0
-0.265 -0.19867346938775507 0.0
-0.265 -0.19666666666666666 0.0
-0.265 -0.19465986394557822 0.0
-0.265 -0.19265306122448977 0.0
-0.265 -0.19064625850340133 0.0
-0.265 -0.1886394557823129 0.0
-0.265 -0.18663265306122445 0.0
-0.265 -0.18462585034013607 0.0
-0.265 -0.18261904761904763 0.0
-0.265 -0.18061224489795918 0.0
-0.265 -0.17860544217687074 0.0
-0.265 -0.1765986394557823 0.0
-0.265 -0.17459183673469386 0.0
-0.265 -0.17258503401360542 0.0
-0.265 -0.17057823129251698 0.0
-0.265 -0.16857142857142857 0.0
-0.265 -0.16656462585034013 0.0
-0.265 -0.16455782312925168 0.0
-0.265 -0.16255102040816324 0.0
-0.265 -0.1605442176870748 0.0
-0.265 -0.15853741496598636 0.0
-0.265 -0.15653061224489795 0.0
-0.265 -0.15452380952380954 0.0
-0.265 -0.1525170068027211 0.0
-0.265 -0.15051020408163265 0.0
-0.265 -0.1485034013605442 0.0
-0.265 -0.14649659863945577 0.0
-0.265 -0.14448979591836733 0.0
-0.265 -0.1424829931972789 0.0
-0.265 -0.14047619047619045 0.0
-0.265 -0.13846938775510204 0.0
-0.265 -0.1364625850340136 0.0
-0.265 -0.13445578231292515 0.0
-0.265 -0.13244897959183674 0.0
-0.265 -0.1304421768707483 0.0
-0.265 -0.12843537414965986 0.0
-0.265 -0.12642857142857142 0.0
-0.265 -0.12442176870748298 0.0
-0.265 -0.12241496598639454 0.0
-0.265 -0.12040816326530612 0.0
-0.265 -0.11840136054421768 0.0
-0.265 -0.11639455782312924 0.0
-0.265 -0.1143877551020408 0.0
-0.265 -0.11238095238095237 0.0
-0.265 -0.11037414965986393 0.0
-0.265 -0.10836734693877549 0.0
-0.265 -0.10636054421768708 0.0
-0.265 -0.10435374149659864 0.0
-0.265 -0.1023469387755102 0.0
-0.265 -0.10034013605442176 0.0
-0.265 -0.09833333333333333 0.0
-0.265 -0.09632653061224489 0.0
-0.265 -0.09431972789115645 0.0
-0.265 -0.09231292517006803 0.0
-0.265 -0.09030612244897959 0.0
-0.265 -0.08829931972789115 0.0
-0.265 -0.08629251700680271 0.0
-0.265 -0.08428571428571428 0.0
-0.265 -0.08227891156462584 0.0
-0.265 -0.0802721088435374 0.0
-0.265 -0.07826530612244897 0.0
-0.265 -0.07625850340136055 0.0
-0.265 -0.0742517006802721 0.0
-0.265 -0.07224489795918367 0.0
-0.265 -0.07023809523809522 0.0
-0.265 -0.0682312925170068 0.0
-0.265 -0.06622448979591837 0.0
-0.265 -0.06421768707482993 0.0
-0.265 -0.06221088435374149 0.0
-0.265 -0.06020408163265306 0.0
-0.265 -0.05819727891156462 0.0
-0.265 -0.056190476190476187 0.0
-0.265 -0.054183673469387746 0.0
-0.265 -0.05217687074829932 0.0
-0.265 -0.05017006802721088 0.0
-0.265 -0.048163265306122444 0.0
-0.265 -0.04615646258503402 0.0
-0.265 -0.044149659863945576 0.0
-0.265 -0.04214285714285714 0.0
-0.265 -0.0401360544217687 0.0
-0.265 -0.038129251700680274 0.0
-0.265 -0.03612244897959183 0.0
-0.265 -0.0341156462585034 0.0
-0.265 -0.032108843537414965 0.0
-0.265 -0.03010204081632653 0.0
-0.265 -0.028095238095238093 0.0
-0.265 -0.02608843537414966 0.0
-0.265 -0.024081632653061222 0.0
-0.265 -0.022074829931972788 0.0
-0.265 -0.02006802721088435 0.0
-0.265 -0.018061224489795916 0.0
-0.265 -0.016054421768707482 0.0
-0.265 -0.014047619047619047 0.0
-0.265 -0.012040816326530611 0.0
-0.265 -0.010034013605442175 0.0
-0.265 -0.008027210884353741 0.0
-0.265 -0.0060204081632653055 0.0
-0.265 -0.004013605442176871 0.0
-0.265 -0.0025 0.0
-0.265 -0.0020068027210884353 0.0
-0.265 0.0 0.0
-0.265 0.0025 0.0
-0.26299242424242425 -0.0025 0.0
-0.26299242424242425 0.0 0.0
-0.26299242424242425 0.0025 0.0
-0.2625 -0.295 0.0
-0.2625 -0.29299319727891154 0.0
-0.2625 -0.2909863945578231 0.0
-0.2625 -0.28897959183673466 0.0
-0.2625 -0.2869727891156462 0.0
-0.2625 -0.2849659863945578 0.0
-0.2625 -0.28295918367346934 0.0
-0.2625 -0.2809523809523809 0.0
-0.2625 -0.27894557823129246 0.0
-0.2625 -0.27693877551020407 0.0
-0.2625 -0.27493197278911563 0.0
-0.2625 -0.2729251700680272 0.0
-0.2625 -0.27091836734693875 0.0
-0.2625 -0.2689115646258503 0.0
-0.2625 -0.26690476190476187 0.0
-0.2625 -0.2648979591836735 0.0
-0.2625 -0.26289115646258504 0.0
-0.2625 -0.2608843537414966 0.0
-0.2625 -0.25887755102040816 0.0
-0.2625 -0.2568707482993197 0.0
-0.2625 -0.2548639455782313 0.0
-0.2625 -0.25285714285714284 0.0
-0.2625 -0.2508503401360544 0.0
-0.2625 -0.24884353741496595 0.0
-0.2625 -0.2468367346938775 0.0
-0.2625 -0.24482993197278907 0.0
-0.2625 -0.24282312925170063 0.0
-0.2625 -0.24081632653061225 0.0
-0.2625 -0.2388095238095238 0.0
-0.2625 -0.23680272108843536 0.0
-0.2625 -0.23479591836734692 0.0
-0.2625 -0.23278911564625848 0.0
-0.2625 -0.23078231292517004 0.0
-0.2625 -0.2287755102040816 0.0
-0.2625 -0.2267687074829932 0.0
-0.2625 -0.22476190476190475 0.0
-0.2625 -0.2227551020408163 0.0
-0.2625 -0.22074829931972786 0.0
-0.2625 -0.21874149659863942 0.0
-0.2625 -0.21673469387755098 0.0
-0.2625 -0.21472789115646254 0.0
-0.2625 -0.21272108843537416 0.0
-0.2625 -0.21071428571428572 0.0
-0.2625 -0.20870748299319727 0.0
-0.2625 -0.20670068027210883 0.0
-0.2625 -0.2046938775510204 0.0
-0.2625 -0.20268707482993195 0.0
-0.2625 -0.2006802721088435 0.0
-0.2625 -0.19867346938775507 0.0
-0.2625 -0.19666666666666666 0.0
-0.2625 -0.19465986394557822 0.0
-0.2625 -0.19265306122448977 0.0
-0.2625 -0.19064625850340133 0.0
-0.2625 -0.1886394557823129 0.0
-0.2625 -0.18663265306122445 0.0
-0.2625 -0.18462585034013607 0.0
-0.2625 -0.18261904761904763 0.0
-0.2625 -0.18061224489795918 0.0
-0.2625 -0.17860544217687074 0.0
-0.2625 -0.1765986394557823 0.0
-0.2625 -0.17459183673469386 0.0
-0.2625 -0.17258503401360542 0.0
-0.2625 -0.17057823129251698 0.0
-0.2625 -0.16857142857142857 0.0
-0.2625 -0.16656462585034013 0.0
-0.2625 -0.16455782312925168 0.0
-0.2625 -0.16255102040816324 0.0
-0.2625 -0.1605442176870748 0.0
-0.2625 -0.15853741496598636 0.0
-0.2625 -0.15653061224489795 0.0
-0.2625 -0.15452380952380954 0.0
-0.2625 -0.1525170068027211 0.0
-0.2625 -0.15051020408163265 0.0
-0.2625 -0.1485034013605442 0.0
-0.2625 -0.14649659863945577 0.0
-0.2625 -0.14448979591836733 0.0
-0.2625 -0.1424829931972789 0.0
-0.2625 -0.14047619047619045 0.0
-0.2625 -0.13846938775510204 0.0
-0.2625 -0.1364625850340136 0.0
-0.2625 -0.13445578231292515 0.0
-0.2625 -0.13244897959183674 0.0
-0.2625 -0.1304421768707483 0.0
-0.2625 -0.12843537414965986 0.0
-0.2625 -0.12642857142857142 0.0
-0.2625 -0.12442176870748298 0.0
-0.2625 -0.12241496598639454 0.0
-0.2625 -0.12040816326530612 0.0
-0.2625 -0.11840136054421768 0.0
-0.2625 -0.11639455782312924 0.0
-0.2625 -0.1143877551020408 0.0
-0.2625 -0.11238095238095237 0.0
-0.2625 -0.11037414965986393 0.0
-0.2625 -0.10836734693877549 0.0
-0.2625 -0.10636054421768708 0.0
-0.2625 -0.10435374149659864 0.0
-0.2625 -0.1023469387755102 0.0
-0.2625 -0.10034013605442176 0.0
-0.2625 -0.09833333333333333 0.0
-0.2625 -0.09632653061224489 0.0
-0.2625 -0.09431972789115645 0.0
-0.2625 -0.09231292517006803 0.0
-0.2625 -0.09030612244897959 0.0
-0.2625 -0.08829931972789115 0.0
-0.2625 -0.08629251700680271 0.0
-0.2625 -0.08428571428571428 0.0
-0.2625 -0.08227891156462584 0.0
-0.2625 -0.0802721088435374 0.0
-0.2625 -0.07826530612244897 0.0
-0.2625 -0.07625850340136055 0.0
-0.2625 -0.0742517006802721 0.0
-0.2625 -0.07224489795918367 0.0
-0.2625 -0.07023809523809522 0.0
-0.2625 -0.0682312925170068 0.0
-0.2625 -0.06622448979591837 0.0
-0.2625 -0.06421768707482993 0.0
-0.2625 -0.06221088435374149 0.0
-0.2625 -0.06020408163265306 0.0
-0.2625 -0.05819727891156462 0.0
-0.2625 -0.056190476190476187 0.0
-0.2625 -0.054183673469387746 0.0
-0.2625 -0.05217687074829932 0.0
-0.2625 -0.05017006802721088 0.0
-0.2625 -0.048163265306122444 0.0
-0.2625 -0.04615646258503402 0.0
-0.2625 -0.044149659863945576 0.0
-0.2625 -0.04214285714285714 0.0
-0.2625 -0.0401360544217687 0.0
-0.2625 -0.038129251700680274 0.0
-0.2625 -0.03612244897959183 0.0
-0.2625 -0.0341156462585034 0.0
-0.2625 -0.032108843537414965 0.0
-0.2625 -0.03010204081632653 0.0
-0.2625 -0.028095238095238093 0.0
-0.2625 -0.02608843537414966 0.0
-0.2625 -0.024081632653061222 0.0
-0.2625 -0.022074829931972788 0.0
-0.2625 -0.02006802721088435 0.0
-0.2625 -0.018061224489795916 0.0
-0.2625 -0.016054421768707482 0.0
-0.2625 -0.014047619047619047 0.0
-0.2625 -0.012040816326530611 0.0
-0.2625 -0.010034013605442175 0.0
-0.2625 -0.008027210884353741 0.0
-0.2625 -0.0060204081632653055 0.0
-0.2625 -0.004013605442176871 0.0
-0.2625 -0.0020068027210884353 0.0
-0.2625 0.0 0.0
-0.2609848484848485 -0.0025 0.0
-0.2609848484848485 0.0 0.0
-0.2609848484848485 0.0025 0.0
-0.2589772727272727 -0.0025 0.0
-0.2589772727272727 0.0 0.0
-0.2589772727272727 0.0025 0.0
-0.256969696969697 -0.0025 0.0
-0.256969696969697 0.0 0.0
-0.256969696969697 0.0025 0.0
-0.25496212121212125 -0.0025 0.0
-0.25496212121212125 0.0 0.0
-0.25496212121212125 0.0025 0.0
-0.2529545454545455 -0.0025 0.0
-0.2529545454545455 0.0 0.0
-0.2529545454545455 0.0025 0.0
-0.2509469696969697 -0.0025 0.0
-0.2509469696969697 0.0 0.0
-0.2509469696969697 0.0025 0.0
-0.24893939393939396 -0.0025 0.0
-0.24893939393939396 0.0 0.0
-0.24893939393939396 0.0025 0.0
-0.2469318181818182 -0.0025 0.0
-0.2469318181818182 0.0 0.0
-0.2469318181818182 0.0025 0.0
-0.24492424242424246 -0.0025 0.0
-0.24492424242424246 0.0 0.0
-0.24492424242424246 0.0025 0.0
-0.2429166666666667 -0.0025 0.0
-0.2429166666666667 0.0 0.0
-0.2429166666666667 0.0025 0.0
-0.24090909090909093 -0.0025 0.0
-0.24090909090909093 0.0 0.0
-0.24090909090909093 0.0025 0.0
-0.23890151515151517 -0.0025 0.0
-0.23890151515151517 0.0 0.0
-0.23890151515151517 0.0025 0.0
-0.2368939393939394 -0.0025 0.0
-0.2368939393939394 0.0 0.0
-0.2368939393939394 0.0025 0.0
-0.23488636363636364 -0.0025 0.0
-0.23488636363636364 0.0 0.0
-0.23488636363636364 0.0025 0.0
-0.23287878787878788 -0.0025 0.0
-0.23287878787878788 0.0 0.0
-0.23287878787878788 0.0025 0.0
-0.23087121212121214 -0.0025 0.0
-0.23087121212121214 0.0 0.0
-0.23087121212121214 0.0025 0.0
-0.22886363636363638 -0.0025 0.0
-0.22886363636363638 0.0 0.0
-0.22886363636363638 0.0025 0.0
-0.22685606060606062 -0.0025 0.0
-0.22685606060606062 0.0 0.0
-0.22685606060606062 0.0025 0.0
-0.22484848484848485 -0.0025 0.0
-0.22484848484848485 0.0 0.0
-0.22484848484848485 0.0025 0.0
-0.22284090909090912 -0.0025 0.0
-0.22284090909090912 0.0 0.0
-0.22284090909090912 0.0025 0.0
-0.22083333333333335 -0.0025 0.0
-0.22083333333333335 0.0 0.0
-0.22083333333333335 0.0025 0.0
-0.2188257575757576 -0.0025 0.0
-0.2188257575757576 0.0 0.0
-0.2188257575757576 0.0025 0.0
-0.21681818181818185 -0.0025 0.0
-0.21681818181818185 0.0 0.0
-0.21681818181818185 0.0025 0.0
-0.2148106060606061 -0.0025 0.0
-0.2148106060606061 0.0 0.0
-0.2148106060606061 0.0025 0.0
-0.21280303030303033 -0.0025 0.0
-0.21280303030303033 0.0 0.0
-0.21280303030303033 0.0025 0.0
-0.21079545454545456 -0.0025 0.0
-0.21079545454545456 0.0 0.0
-0.21079545454545456 0.0025 0.0
-0.2087878787878788 -0.0025 0.0
-0.2087878787878788 0.0 0.0
-0.2087878787878788 0.0025 0.0
-0.20678030303030304 -0.0025 0.0
-0.20678030303030304 0.0 0.0
-0.20678030303030304 0.0025 0.0
-0.20477272727272727 -0.0025 0.0
-0.20477272727272727 0.0 0.0
-0.20477272727272727 0.0025 0.0
-0.2027651515151515 -0.0025 0.0
-0.2027651515151515 0.0 0.0
-0.2027651515151515 0.0025 0.0
-0.20075757575757577 -0.0025 0.0
-0.20075757575757577 0.0 0.0
-0.20075757575757577 0.0025 0.0
-0.19875 -0.0025 0.0
-0.19875 0.0 0.0
-0.19875 0.0025 0.0
-0.19674242424242425 -0.0025 0.0
-0.19674242424242425 0.0 0.0
-0.19674242424242425 0.0025 0.0
-0.1947348484848485 -0.0025 0.0
-0.1947348484848485 0.0 0.0
-0.1947348484848485 0.0025 0.0
-0.19272727272727275 -0.0025 0.0
-0.19272727272727275 0.0 0.0
-0.19272727272727275 0.0025 0.0
-0.19071969696969698 -0.0025 0.0
-0.19071969696969698 0.0 0.0
-0.19071969696969698 0.0025 0.0
-0.18871212121212122 -0.0025 0.0
-0.18871212121212122 0.0 0.0
-0.18871212121212122 0.0025 0.0
-0.18670454545454548 -0.0025 0.0
-0.18670454545454548 0.0 0.0
-0.18670454545454548 0.0025 0.0
-0.18469696969696972 -0.0025 0.0
-0.18469696969696972 0.0 0.0
-0.18469696969696972 0.0025 0.0
-0.18268939393939396 -0.0025 0.0
-0.18268939393939396 0.0 0.0
-0.18268939393939396 0.0025 0.0
-0.1806818181818182 -0.0025 0.0
-0.1806818181818182 0.0 0.0
-0.1806818181818182 0.0025 0.0
-0.17867424242424246 -0.0025 0.0
-0.17867424242424246 0.0 0.0
-0.17867424242424246 0.0025 0.0
-0.1766666666666667 -0.0025 0.0
-0.1766666666666667 0.0 0.0
-0.1766666666666667 0.0025 0.0
-0.1746590909090909 -0.0025 0.0
-0.1746590909090909 0.0 0.0
-0.1746590909090909 0.0025 0.0
-0.17265151515151517 -0.0025 0.0
-0.17265151515151517 0.0 0.0
-0.17265151515151517 0.0025 0.0
-0.1706439393939394 -0.0025 0.0
-0.1706439393939394 0.0 0.0
-0.1706439393939394 0.0025 0.0
-0.16863636363636364 -0.0025 0.0
-0.16863636363636364 0.0 0.0
-0.16863636363636364 0.0025 0.0
-0.16662878787878788 -0.0025 0.0
-0.16662878787878788 0.0 0.0
-0.16662878787878788 0.0025 0.0
-0.16462121212121214 -0.0025 0.0
-0.16462121212121214 0.0 0.0
-0.16462121212121214 0.0025 0.0
-0.16261363636363638 -0.0025 0.0
-0.16261363636363638 0.0 0.0
-0.16261363636363638 0.0025 0.0
-0.1606060606060606 -0.0025 0.0
-0.1606060606060606 0.0 0.0
-0.1606060606060606 0.0025 0.0
-0.15859848484848485 -0.0025 0.0
-0.15859848484848485 0.0 0.0
-0.15859848484848485 0.0025 0.0
-0.15659090909090911 -0.0025 0.0
-0.15659090909090911 0.0 0.0
-0.15659090909090911 0.0025 0.0
-0.15458333333333335 -0.0025 0.0
-0.15458333333333335 0.0 0.0
-0.15458333333333335 0.0025 0.0
-0.1525757575757576 -0.0025 0.0
-0.1525757575757576 0.0 0.0
-0.1525757575757576 0.0025 0.0
-0.15056818181818185 -0.0025 0.0
-0.15056818181818185 0.0 0.0
-0.15056818181818185 0.0025 0.0
-0.1485606060606061 -0.0025 0.0
-0.1485606060606061 0.0 0.0
-0.1485606060606061 0.0025 0.0
-0.14655303030303032 -0.0025 0.0
-0.14655303030303032 0.0 0.0
-0.14655303030303032 0.0025 0.0
-0.14454545454545453 -0.0025 0.0
-0.14454545454545453 0.0 0.0
-0.14454545454545453 0.0025 0.0
-0.1425378787878788 -0.0025 0.0
-0.1425378787878788 0.0 0.0
-0.1425378787878788 0.0025 0.0
-0.14053030303030303 -0.0025 0.0
-0.14053030303030303 0.0 0.0
-0.14053030303030303 0.0025 0.0
-0.13852272727272727 -0.0025 0.0
-0.13852272727272727 0.0 0.0
-0.13852272727272727 0.0025 0.0
-0.1365151515151515 -0.0025 0.0
-0.1365151515151515 0.0 0.0
-0.1365151515151515 0.0025 0.0
-0.13450757575757577 -0.0025 0.0
-0.13450757575757577 0.0 0.0
-0.13450757575757577 0.0025 0.0
-0.1325 -0.0025 0.0
-0.1325 0.0 0.0
-0.1325 0.0025 0.0
-0.13049242424242424 -0.0025 0.0
-0.13049242424242424 0.0 0.0
-0.13049242424242424 0.0025 0.0
-0.1284848484848485 -0.0025 0.0
-0.1284848484848485 0.0 0.0
-0.1284848484848485 0.0025 0.0
-0.12647727272727274 -0.0025 0.0
-0.12647727272727274 0.0 0.0
-0.12647727272727274 0.0025 0.0
-0.12446969696969698 -0.0025 0.0
-0.12446969696969698 0.0 0.0
-0.12446969696969698 0.0025 0.0
-0.12246212121212123 -0.0025 0.0
-0.12246212121212123 0.0 0.0
-0.12246212121212123 0.0025 0.0
-0.12045454545454547 -0.0025 0.0
-0.12045454545454547 0.0 0.0
-0.12045454545454547 0.0025 0.0
-0.1184469696969697 -0.0025 0.0
-0.1184469696969697 0.0 0.0
-0.1184469696969697 0.0025 0.0
-0.11643939393939394 -0.0025 0.0
-0.11643939393939394 0.0 0.0
-0.11643939393939394 0.0025 0.0
-0.11443181818181819 -0.0025 0.0
-0.11443181818181819 0.0 0.0
-0.11443181818181819 0.0025 0.0
-0.11242424242424243 -0.0025 0.0
-0.11242424242424243 0.0 0.0
-0.11242424242424243 0.0025 0.0
-0.11041666666666668 -0.0025 0.0
-0.11041666666666668 0.0 0.0
-0.11041666666666668 0.0025 0.0
-0.10840909090909093 -0.0025 0.0
-0.10840909090909093 0.0 0.0
-0.10840909090909093 0.0025 0.0
-0.10640151515151516 -0.0025 0.0
-0.10640151515151516 0.0 0.0
-0.10640151515151516 0.0025 0.0
-0.1043939393939394 -0.0025 0.0
-0.1043939393939394 0.0 0.0
-0.1043939393939394 0.0025 0.0
-0.10238636363636364 -0.0025 0.0
-0.10238636363636364 0.0 0.0
-0.10238636363636364 0.0025 0.0
-0.10037878787878789 -0.0025 0.0
-0.10037878787878789 0.0 0.0
-0.10037878787878789 0.0025 0.0
-0.09837121212121212 -0.0025 0.0
-0.09837121212121212 0.0 0.0
-0.09837121212121212 0.0025 0.0
-0.09636363636363637 -0.0025 0.0
-0.09636363636363637 0.0 0.0
-0.09636363636363637 0.0025 0.0
-0.09435606060606061 -0.0025 0.0
-0.09435606060606061 0.0 0.0
-0.09435606060606061 0.0025 0.0
-0.09234848484848486 -0.0025 0.0
-0.09234848484848486 0.0 0.0
-0.09234848484848486 0.0025 0.0
-0.0903409090909091 -0.0025 0.0
-0.0903409090909091 0.0 0.0
-0.0903409090909091 0.0025 0.0
-0.08833333333333335 -0.0025 0.0
-0.08833333333333335 0.0 0.0
-0.08833333333333335 0.0025 0.0
-0.08632575757575758 -0.0025 0.0
-0.08632575757575758 0.0 0.0
-0.08632575757575758 0.0025 0.0
-0.08431818181818182 -0.0025 0.0
-0.08431818181818182 0.0 0.0
-0.08431818181818182 0.0025 0.0
-0.08231060606060607 -0.0025 0.0
-0.08231060606060607 0.0 0.0
-0.08231060606060607 0.0025 0.0
-0.0803030303030303 -0.0025 0.0
-0.0803030303030303 0.0 0.0
-0.0803030303030303 0.0025 0.0
-0.07829545454545456 -0.0025 0.0
-0.07829545454545456 0.0 0.0
-0.07829545454545456 0.0025 0.0
-0.0762878787878788 -0.0025 0.0
-0.0762878787878788 0.0 0.0
-0.0762878787878788 0.0025 0.0
-0.07428030303030304 -0.0025 0.0
-0.07428030303030304 0.0 0.0
-0.07428030303030304 0.0025 0.0
-0.07227272727272727 -0.0025 0.0
-0.07227272727272727 0.0 0.0
-0.07227272727272727 0.0025 0.0
-0.07026515151515152 -0.0025 0.0
-0.07026515151515152 0.0 0.0
-0.07026515151515152 0.0025 0.0
-0.06825757575757575 -0.0025 0.0
-0.06825757575757575 0.0 0.0
-0.06825757575757575 0.0025 0.0
-0.06625 -0.0025 0.0
-0.06625 0.0 0.0
-0.06625 0.0025 0.0
-0.06424242424242425 -0.0025 0.0
-0.06424242424242425 0.0 0.0
-0.06424242424242425 0.0025 0.0
-0.06223484848484849 -0.0025 0.0
-0.06223484848484849 0.0 0.0
-0.06223484848484849 0.0025 0.0
-0.06022727272727273 -0.0025 0.0
-0.06022727272727273 0.0 0.0
-0.06022727272727273 0.0025 0.0
-0.05821969696969697 -0.0025 0.0
-0.05821969696969697 0.0 0.0
-0.05821969696969697 0.0025 0.0
-0.05621212121212121 -0.0025 0.0
-0.05621212121212121 0.0 0.0
-0.05621212121212121 0.0025 0.0
-0.054204545454545464 -0.0025 0.0
-0.054204545454545464 0.0 0.0
-0.054204545454545464 0.0025 0.0
-0.0521969696969697 -0.0025 0.0
-0.0521969696969697 0.0 0.0
-0.0521969696969697 0.0025 0.0
-0.05018939393939394 -0.0025 0.0
-0.05018939393939394 0.0 0.0
-0.05018939393939394 0.0025 0.0
-0.04818181818181819 -0.0025 0.0
-0.04818181818181819 0.0 0.0
-0.04818181818181819 0.0025 0.0
-0.04617424242424243 -0.0025 0.0
-0.04617424242424243 0.0 0.0
-0.04617424242424243 0.0025 0.0
-0.044166666666666674 -0.0025 0.0
-0.044166666666666674 0.0 0.0
-0.044166666666666674 0.0025 0.0
-0.04215909090909091 -0.0025 0.0
-0.04215909090909091 0.0 0.0
-0.04215909090909091 0.0025 0.0
-0.04015151515151515 -0.0025 0.0
-0.04015151515151515 0.0 0.0
-0.04015151515151515 0.0025 0.0
-0.0381439393939394 -0.0025 0.0
-0.0381439393939394 0.0 0.0
-0.0381439393939394 0.0025 0.0
-0.03613636363636363 -0.0025 0.0
-0.03613636363636363 0.0 0.0
-0.03613636363636363 0.0025 0.0
-0.034128787878787877 -0.0025 0.0
-0.034128787878787877 0.0 0.0
-0.034128787878787877 0.0025 0.0
-0.03212121212121213 -0.0025 0.0
-0.03212121212121213 0.0 0.0
-0.03212121212121213 0.0025 0.0
-0.030113636363636367 -0.0025 0.0
-0.030113636363636367 0.0 0.0
-0.030113636363636367 0.0025 0.0
-0.028106060606060607 -0.0025 0.0
-0.028106060606060607 0.0 0.0
-0.028106060606060607 0.0025 0.0
-0.02609848484848485 -0.0025 0.0
-0.02609848484848485 0.0 0.0
-0.02609848484848485 0.0025 0.0
-0.024090909090909093 -0.0025 0.0
-0.024090909090909093 0.0 0.0
-0.024090909090909093 0.0025 0.0
-0.022083333333333337 -0.0025 0.0
-0.022083333333333337 0.0 0.0
-0.022083333333333337 0.0025 0.0
-0.020075757575757577 -0.0025 0.0
-0.020075757575757577 0.0 0.0
-0.020075757575757577 0.0025 0.0
-0.018068181818181817 -0.0025 0.0
-0.018068181818181817 0.0 0.0
-0.018068181818181817 0.0025 0.0
-0.016060606060606063 -0.0025 0.0
-0.016060606060606063 0.0 0.0
-0.016060606060606063 0.0025 0.0
-0.014053030303030303 -0.0025 0.0
-0.014053030303030303 0.0 0.0
-0.014053030303030303 0.0025 0.0
-0.012045454545454547 -0.0025 0.0
-0.012045454545454547 0.0 0.0
-0.012045454545454547 0.0025 0.0
-0.010037878787878788 -0.0025 0.0
-0.010037878787878788 0.0 0.0
-0.010037878787878788 0.0025 0.0
-0.008030303030303032 -0.0025 0.0
-0.008030303030303032 0.0 0.0
-0.008030303030303032 0.0025 0.0
-0.006022727272727273 -0.0025 0.0
-0.006022727272727273 0.0 0.0
-0.006022727272727273 0.0025 0.0
-0.004015151515151516 -0.0025 0.0
-0.004015151515151516 0.0 0.0
-0.004015151515151516 0.0025 0.0
-0.0025 0.0 0.0
-0.0025 0.002037037037037037 0.0
-0.0025 0.004074074074074074 0.0
-0.0025 0.0061111111111111106 0.0
-0.0025 0.008148148148148147 0.0
-0.0025 0.010185185185185184 0.0
-0.0025 0.012222222222222221 0.0
-0.0025 0.014259259259259258 0.0
-0.0025 0.016296296296296295 0.0
-0.0025 0.018333333333333333 0.0
-0.0025 0.02037037037037037 0.0
-0.0025 0.022407407407407407 0.0
-0.0025 0.024444444444444442 0.0
-0.0025 0.02648148148148148 0.0
-0.0025 0.028518518518518516 0.0
-0.0025 0.030555555555555558 0.0
-0.0025 0.03259259259259259 0.0
-0.0025 0.03462962962962963 0.0
-0.0025 0.03666666666666667 0.0
-0.0025 0.038703703703703705 0.0
-0.0025 0.04074074074074074 0.0
-0.0025 0.042777777777777776 0.0
-0.0025 0.044814814814814814 0.0
-0.0025 0.04685185185185185 0.0
-0.0025 0.048888888888888885 0.0
-0.0025 0.05092592592592592 0.0
-0.0025 0.05296296296296296 0.0
-0.0025 0.055 0.0
-0.0025 0.05703703703703703 0.0
-0.0025 0.05907407407407407 0.0
-0.0025 0.061111111111111116 0.0
-0.0025 0.06314814814814815 0.0
-0.0025 0.06518518518518518 0.0
-0.0025 0.06722222222222221 0.0
-0.0025 0.06925925925925926 0.0
-0.0025 0.0712962962962963 0.0
-0.0025 0.07333333333333333 0.0
-0.0025 0.07537037037037037 0.0
-0.0025 0.07740740740740741 0.0
-0.0025 0.07944444444444444 0.0
-0.0025 0.08148148148148147 0.0
-0.0025 0.0835185185185185 0.0
-0.0025 0.08555555555555555 0.0
-0.0025 0.0875925925925926 0.0
-0.0025 0.08962962962962963 0.0
-0.0025 0.09166666666666666 0.0
-0.0025 0.0937037037037037 0.0
-0.0025 0.09574074074074074 0.0
-0.0025 0.09777777777777777 0.0
-0.0025 0.0998148148148148 0.0
-0.0025 0.10185185185185185 0.0
-0.0025 0.10388888888888889 0.0
-0.0025 0.10592592592592592 0.0
-0.0025 0.10796296296296296 0.0
-0.0025 0.11 0.0
-0.002007575757575758 -0.0025 0.0
-0.002007575757575758 0.0 0.0
-0.002007575757575758 0.0025 0.0
0.0 -0.0025 0.0
0.0 0.0 0.0
0.0 0.002037037037037037 0.0
0.0 0.0025 0.0
0.0 0.004074074074074074 0.0
0.0 0.0061111111111111106 0.0
0.0 0.008148148148148147 0.0
0.0 0.010185185185185184 0.0
0.0 0.012222222222222221 0.0
0.0 0.014259259259259258 0.0
0.0 0.016296296296296295 0.0
0.0 0.018333333333333333 0.0
0.0 0.02037037037037037 0.0
0.0 0.022407407407407407 0.0
0.0 0.024444444444444442 0.0
0.0 0.02648148148148148 0.0
0.0 0.028518518518518516 0.0
0.0 0.030555555555555558 0.0
0.0 0.03259259259259259 0.0
0.0 0.03462962962962963 0.0
0.0 0.03666666666666667 0.0
0.0 0.038703703703703705 0.0
0.0 0.04074074074074074 0.0
0.0 0.042777777777777776 0.0
0.0 0.044814814814814814 0.0
0.0 0.04685185185185185 0.0
0.0 0.048888888888888885 0.0
0.0 0.05092592592592592 0.0
0.0 0.05296296296296296 0.0
0.0 0.055 0.0
0.0 0.05703703703703703 0.0
0.0 0.05907407407407407 0.0
0.0 0.061111111111111116 0.0
0.0 0.06314814814814815 0.0
0.0 0.06518518518518518 0.0
0.0 0.06722222222222221 0.0
0.0 0.06925925925925926 0.0
0.0 0.0712962962962963 0.0
0.0 0.07333333333333333 0.0
0.0 0.07537037037037037 0.0
0.0 0.07740740740740741 0.0
0.0 0.07944444444444444 0.0
0.0 0.08148148148148147 0.0
0.0 0.0835185185185185 0.0
0.0 0.08555555555555555 0.0
0.0 0.0875925925925926 0.0
0.0 0.08962962962962963 0.0
0.0 0.09166666666666666 0.0
0.0 0.0937037037037037 0.0
0.0 0.09574074074074074 0.0
0.0 0.09777777777777777 0.0
0.0 0.0998148148148148 0.0
0.0 0.10185185185185185 0.0
0.0 0.10388888888888889 0.0
0.0 0.10592592592592592 0.0
0.0 0.10796296296296296 0.0
0.0 0.11 0.0
0.0025 0.0 0.0
0.0025 0.002037037037037037 0.0
0.0025 0.004074074074074074 0.0
0.0025 0.0061111111111111106 0.0
0.0025 0.008148148148148147 0.0
0.0025 0.010185185185185184 0.0
0.0025 0.012222222222222221 0.0
0.0025 0.014259259259259258 0.0
0.0025 0.016296296296296295 0.0
0.0025 0.018333333333333333 0.0
0.0025 0.02037037037037037 0.0
0.0025 0.022407407407407407 0.0
0.0025 0.024444444444444442 0.0
0.0025 0.02648148148148148 0.0
0.0025 0.028518518518518516 0.0
0.0025 0.030555555555555558 0.0
0.0025 0.03259259259259259 0.0
0.0025 0.03462962962962963 0.0
0.0025 0.03666666666666667 0.0
0.0025 0.038703703703703705 0.0
0.0025 0.04074074074074074 0.0
0.0025 0.042777777777777776 0.0
0.0025 0.044814814814814814 0.0
0.0025 0.04685185185185185 0.0
0.0025 0.048888888888888885 0.0
0.0025 0.05092592592592592 0.0
0.0025 0.05296296296296296 0.0
0.0025 0.055 0.0
0.0025 0.05703703703703703 0.0
0.0025 0.05907407407407407 0.0
0.0025 0.061111111111111116 0.0
0.0025 0.06314814814814815 0.0
0.0025 0.06518518518518518 0.0
0.0025 0.06722222222222221 0.0
0.0025 0.06925925925925926 0.0
0.0025 0.0712962962962963 0.0
0.0025 0.07333333333333333 0.0
0.0025 0.07537037037037037 0.0
0.0025 0.07740740740740741 0.0
0.0025 0.07944444444444444 0.0
0.0025 0.08148148148148147 0.0
0.0025 0.0835185185185185 0.0
0.0025 0.08555555555555555 0.0
0.0025 0.0875925925925926 0.0
0.0025 0.08962962962962963 0.0
0.0025 0.09166666666666666 0.0
0.0025 0.0937037037037037 0.0
0.0025 0.09574074074074074 0.0
0.0025 0.09777777777777777 0.0
0.0025 0.0998148148148148 0.0
0.0025 0.10185185185185185 0.0
0.0025 0.10388888888888889 0.0
0.0025 0.10592592592592592 0.0
0.0025 0.10796296296296296 0.0
0.0025 0.11 0.0
